<svg id="Calque_1" data-name="Calque 1" xmlns="http://www.w3.org/2000/svg" viewBox="0 0 552.21 165.62"><defs><style>.cls-1,.cls-2{fill:#fff;}.cls-2{stroke:#1a171b;stroke-miterlimit:10;stroke-width:0.25px;}</style></defs><title>black-alps-v5-logo-white</title><path class="cls-1" d="M60,108.72a6.67,6.67,0,0,1,4.34,1.37,10,10,0,0,1,2.74,3.57,17.05,17.05,0,0,1,1.43,5.15,46.31,46.31,0,0,1,.38,6v.22a12.34,12.34,0,0,1-.76,4.28,22.91,22.91,0,0,1-1.87,3.89,20.15,20.15,0,0,1-2.36,3.19,11.3,11.3,0,0,1-2.36,2,10,10,0,0,1,2.63,6.8,12.35,12.35,0,0,1-.38,3.07,27.07,27.07,0,0,1-.93,3l-.33,1.2a43.63,43.63,0,0,1-2.8,6.59,13.28,13.28,0,0,1-8.89,7,30.83,30.83,0,0,1-7.74.82H2.74l17-58.16ZM41.92,152a10.31,10.31,0,0,0,1.42-.94,15.28,15.28,0,0,0,1.87-1.48,11.71,11.71,0,0,1,.77-1.75l.22-.55a2.14,2.14,0,0,0,.22-1.1V144.6H26.22L23.92,152Zm-6.15-21h14c.07,0,.22-.17.44-.5a10.68,10.68,0,0,0,.66-1.15c.22-.44.44-.86.65-1.26a2.19,2.19,0,0,0,.33-.94l.22-.54a1.61,1.61,0,0,1-.22-.55,7.79,7.79,0,0,0-.87-1.48c-.44-.63-.74-.94-.88-.94h-18l-4.83,16.68Z" transform="translate(-2.74 -1.26)"/><path class="cls-1" d="M63.21,166.88l17-58.16H97L84.28,152.06h27.87a8.48,8.48,0,0,1-1,1.87c-.77,1.24-1.7,2.69-2.8,4.33s-2.25,3.3-3.46,4.94a32.33,32.33,0,0,1-3,3.68Z" transform="translate(-2.74 -1.26)"/><path class="cls-1" d="M157.36,166.88l-1.86-12.4a19.79,19.79,0,0,1-1.26,2.52c-.7,1.25-1.5,2.56-2.42,3.95s-1.81,2.68-2.69,3.85a7.56,7.56,0,0,1-2,2.08H110.07a3,3,0,0,1,.22-.77v-.33l31.6-50.48a7.73,7.73,0,0,1,1-1.75,22.45,22.45,0,0,1,1.7-2.14,21.92,21.92,0,0,1,1.86-1.87,2.67,2.67,0,0,1,1.6-.82h14.7q.88,0,1.59,1.2a13.81,13.81,0,0,1,1.26,3,36.43,36.43,0,0,1,.94,3.67c.25,1.28.49,2.36.71,3.24l5.82,47.08Zm-19.64-14.71H155.5l-3.07-25.78-14.71,24.69Z" transform="translate(-2.74 -1.26)"/><path class="cls-1" d="M175.69,140a35.1,35.1,0,0,1,1.81-10.86,38.12,38.12,0,0,1,4.94-10.1,29,29,0,0,1,7.3-7.4,15.08,15.08,0,0,1,8.78-2.91h36.32c-1.68,2.78-3.39,5.39-5.1,7.84a56.83,56.83,0,0,1-5.76,7H201.15a4.16,4.16,0,0,0-2.47.93,12.08,12.08,0,0,0-2.41,2.47,21.17,21.17,0,0,0-2.09,3.46,23.89,23.89,0,0,0-1.48,3.79c-.22.87-.4,1.7-.55,2.47a10.6,10.6,0,0,0-.22,2,12.63,12.63,0,0,0,.88,4.44,19,19,0,0,0,2.25,4.34,16.41,16.41,0,0,0,3,3.29,4.92,4.92,0,0,0,3.13,1.31h21.07q-2.08,3.74-4.61,7.63a40.93,40.93,0,0,1-5.93,7.19h-7a46.49,46.49,0,0,1-10.59-1.21,24.61,24.61,0,0,1-9.27-4.22,22,22,0,0,1-6.59-8.18q-2.52-5.16-2.52-13.06Z" transform="translate(-2.74 -1.26)"/><path class="cls-1" d="M239.34,108.72h16.79l-7.57,26.12,29.08-26.12H296.4L266,137.8l16.9,29.08H264l-17.12-26.12-7.68,26.12h-16.9Z" transform="translate(-2.74 -1.26)"/><path class="cls-1" d="M357,166.88l-1.87-12.4a17.3,17.3,0,0,1-1.26,2.52c-.7,1.25-1.5,2.56-2.41,3.95s-1.81,2.68-2.69,3.85a7.7,7.7,0,0,1-2,2.08H309.68a3.82,3.82,0,0,1,.22-.77v-.33l31.6-50.48a7.73,7.73,0,0,1,1-1.75,22.45,22.45,0,0,1,1.7-2.14,22,22,0,0,1,1.87-1.87,2.63,2.63,0,0,1,1.59-.82h14.7c.59,0,1.12.4,1.6,1.2a14.89,14.89,0,0,1,1.26,3c.36,1.17.67,2.4.93,3.67s.5,2.36.71,3.24l5.82,47.08Zm-19.65-14.71h17.78L352,126.39l-14.71,24.69Z" transform="translate(-2.74 -1.26)"/><path class="cls-1" d="M376.62,166.88l17-58.16h16.79l-12.73,43.34h27.87a7.94,7.94,0,0,1-1,1.87c-.77,1.24-1.7,2.69-2.8,4.33s-2.25,3.3-3.45,4.94a33.32,33.32,0,0,1-3,3.68Z" transform="translate(-2.74 -1.26)"/><path class="cls-1" d="M442.79,108.72h40.28a5.88,5.88,0,0,1,4.33,1.7,12.66,12.66,0,0,1,2.74,4.17,20.59,20.59,0,0,1,1.43,5.27,36.52,36.52,0,0,1,.39,5,20.1,20.1,0,0,1-1.76,8.45,23.82,23.82,0,0,1-4.44,6.64,20.07,20.07,0,0,1-6,4.33,14.68,14.68,0,0,1-6.25,1.54H448.83l-6.15,21.07h-16.9Zm7.57,31.6,8.45-9.32h14.05c.07,0,.22-.17.44-.5a10.68,10.68,0,0,0,.66-1.15q.33-.66.66-1.26a2.19,2.19,0,0,0,.33-.94l.22-.54a1.28,1.28,0,0,1-.22-.55,8,8,0,0,0-.88-1.48c-.44-.63-.73-.94-.88-.94h-18Z" transform="translate(-2.74 -1.26)"/><path class="cls-1" d="M526.74,148.44v-.65a7.8,7.8,0,0,0-.22-1.82c-.14-.62-.47-.93-1-.93H508a7.83,7.83,0,0,1-4.78-1.59,14,14,0,0,1-3.62-4.06,22,22,0,0,1-2.3-5.43,21.64,21.64,0,0,1-.83-5.82,18,18,0,0,1,1.21-6,31,31,0,0,1,3.18-6.36,22.76,22.76,0,0,1,4.39-5,7.61,7.61,0,0,1,4.94-2H555q-2.09,3.73-4.61,7.46a84.68,84.68,0,0,1-5.71,7.46h-29c-.66,0-1.23.55-1.7,1.65a7.05,7.05,0,0,0-.72,2.63v.55a1.27,1.27,0,0,0,.33.49c.22.26.41.46.55.61a3.23,3.23,0,0,0,1,.82,3.27,3.27,0,0,0,.77.39h16.68a7.15,7.15,0,0,1,4.77,1.7,13.41,13.41,0,0,1,3.35,4.28,21.37,21.37,0,0,1,1.92,5.54,27.7,27.7,0,0,1,.6,5.49v.65a19.67,19.67,0,0,1-1,6.09,25.21,25.21,0,0,1-2.8,6,19.27,19.27,0,0,1-4,4.56,7.13,7.13,0,0,1-4.61,1.81H486a31.85,31.85,0,0,1,1.81-3.51q1.37-2.42,2.91-4.89t2.8-4.39c.84-1.27,1.37-1.92,1.59-1.92H525c.87,0,1.39-.32,1.53-1a9.43,9.43,0,0,0,.22-2.09Z" transform="translate(-2.74 -1.26)"/><g id="_4taspU.tif" data-name="4taspU.tif"><path class="cls-1" d="M360.25,103.89a4.13,4.13,0,0,0-.69-.11H348.28c.16-.28.26-.49.39-.67,1.15-1.59,2.26-3.2,3.46-4.75,6.31-8.07,12.88-15.91,19.79-23.48a68.52,68.52,0,0,1,7.91-7.51,32.74,32.74,0,0,1,4.73-3.16A22.87,22.87,0,0,0,394.74,53a56.06,56.06,0,0,0,3.45-10.89,37.59,37.59,0,0,1,1.44-5,9.56,9.56,0,0,1,1.73-2.92,45.64,45.64,0,0,1,5.47-5.3c1.52-1.26,3.11-2.45,4.68-3.66a10.11,10.11,0,0,0,2.09-2,5.81,5.81,0,0,0,1.17-3.39,22.21,22.21,0,0,1,1.05-5.71,38.44,38.44,0,0,1,4.42-9.93,20.4,20.4,0,0,1,1.46-1.9,3,3,0,0,1,2.69-1,36,36,0,0,1,7.35,1.41c.59.16,1.18.36,1.77.54a13,13,0,0,1,4,2,160.48,160.48,0,0,1,13.7,11.38,87.19,87.19,0,0,1,11.41,13.17,23.53,23.53,0,0,1,3.95,8.48,26.88,26.88,0,0,1,.68,6.06q0,1.68-.06,3.36a2.35,2.35,0,0,0,.29,1.27,7.49,7.49,0,0,0,2.34,2.6,1.93,1.93,0,0,0,.89.33,8.75,8.75,0,0,1,4.71,1.9,21,21,0,0,1,3.44,3.42c1.21,1.46,2.38,3,3.65,4.37A30,30,0,0,0,485.08,64a3.44,3.44,0,0,0,3.25.76c.7-.17,1.4-.34,2.08-.56a6.85,6.85,0,0,1,2-.32,31,31,0,0,1,4.72.29,3.31,3.31,0,0,1,1.7.82Q505,70.22,511.1,75.44c5.32,4.49,10.75,8.83,16.47,12.81A127.52,127.52,0,0,0,540.27,96a114.43,114.43,0,0,1,10.84,6.52,9.33,9.33,0,0,1,1.35,1.12H512l.35-.35a14.73,14.73,0,0,0,1.3-1.32,1.67,1.67,0,0,0-.46-2.74,9.58,9.58,0,0,0-2-1,25.37,25.37,0,0,0-5-1.19c-3.32-.5-6.65-.94-10-1.36-2.3-.3-4.61-.56-6.91-.77a21.14,21.14,0,0,0-6.45.18,5.84,5.84,0,0,0-1.52.53,2,2,0,0,0-1,2.56,7.11,7.11,0,0,0,.78,1.62,18.76,18.76,0,0,0,2.87,3.36l.47.48h-2.52l-8.22,0-13.19.07a4.85,4.85,0,0,0-.75.11H443.89c.07-.25.15-.5.21-.75a12.38,12.38,0,0,0,.52-3.42,4,4,0,0,0-3-4,6.56,6.56,0,0,0-.87-.23,15.18,15.18,0,0,0-4.41-.19,58.51,58.51,0,0,0-8.33,1.34c-5.13,1.15-10.17,2.61-15.2,4.11a1.08,1.08,0,0,0-.93,1.09,5.63,5.63,0,0,1-.51,2H400a4.85,4.85,0,0,0-.75.11h-4.56a5.77,5.77,0,0,1,.08-.58c.12-.57.28-1.12.37-1.69a3.55,3.55,0,0,0-2.38-4.13,6.63,6.63,0,0,0-1.15-.35,18.49,18.49,0,0,0-4.64-.28,71.38,71.38,0,0,0-9.78,1.32c-4.61.88-9.17,2-13.73,3.09l-.95.27c0,.29,0,.55,0,.8,0,.52.09,1,.14,1.55ZM379,74l.82.31c3.7,1.38,7.39,2.82,11,4.45a70.49,70.49,0,0,1,11.5,6.3,1.07,1.07,0,0,0,1.15.12,40,40,0,0,0,17.78-13.76,50.79,50.79,0,0,0,7.17-14,50,50,0,0,0,2.4-9.94c.27-2.2.42-4.42.57-6.63s.29-4.42.63-6.62a22.76,22.76,0,0,1,1.42-5.37,10.64,10.64,0,0,1,4-5l.22-.14c-2.42-7.68-6.52-14-13.47-18.22l-.19.07-.24.17A11.71,11.71,0,0,0,419.49,12c-.45,1.58-.66,3.2-.95,4.81-.34,1.87-.66,3.74-1.09,5.59a9,9,0,0,1-4.7,6.19c-.56.3-1.08.69-1.62,1a27.88,27.88,0,0,0-4.41,3.77,12.62,12.62,0,0,0-3.94,7.17,37.28,37.28,0,0,1-2.11,7.67c-1.12,2.85-2.11,5.74-3.5,8.47a22.37,22.37,0,0,1-9.58,10,16.57,16.57,0,0,0-2.32,1.48,51,51,0,0,0-5.75,5.25C379.37,73.56,379.23,73.73,379,74Z" transform="translate(-2.74 -1.26)"/></g><path class="cls-2" d="M408.13,1" transform="translate(-2.74 -1.26)"/><path class="cls-2" d="M305.18,169.28" transform="translate(-2.74 -1.26)"/></svg>